<?xml version="1.0" encoding="utf-8"?>
<!-- Generator: Adobe Illustrator 16.0.0, SVG Export Plug-In . SVG Version: 6.00 Build 0)  -->
<!DOCTYPE svg PUBLIC "-//W3C//DTD SVG 1.1//EN" "http://www.w3.org/Graphics/SVG/1.1/DTD/svg11.dtd">
<svg version="1.1" id="Capa_1" xmlns="http://www.w3.org/2000/svg" xmlns:xlink="http://www.w3.org/1999/xlink" x="0px" y="0px"
	 width="507.442px" height="320.5px" viewBox="0 0 507.442 320.5" enable-background="new 0 0 507.442 320.5" xml:space="preserve">
<g>
	<path fill="#E9FBFF" d="M85.881,317.056c-13.593-24.863-38.457-82.553-24.062-153.82c14.395-71.268,39.325-115.107,67.756-129.502
		c28.43-14.395,34.927,18.541,46.4,37.733c11.474,19.193,40.369-16.256,45.498-31.844c11.341-34.46,62.816-41.223,64.779-4.581
		s5.039,62.269,35.563,46.511c30.523-15.758,82.656-49.501,98.793,17.753c16.139,67.255,24.932,54.823,31.66,88.847
		c6.727,34.025,15.232,23.561,40.098,29.775c24.863,6.213,20.283,72.301-23.557,99.127H85.881z"/>
	<g>
		<rect x="134.281" y="85.415" fill="#B7EBF7" width="110.251" height="141.573"/>
		<path fill="#E9FBFF" d="M236.386,219.15c0,0.355-0.289,0.645-0.645,0.645h-93.525c-0.354,0-0.644-0.289-0.644-0.645V94.898
			c0-0.355,0.289-0.645,0.644-0.645h93.525c0.355,0,0.645,0.29,0.645,0.645V219.15z"/>
		<g>
			<rect x="214.011" y="105.29" fill="#99D2E4" width="7.074" height="30.892"/>
			<rect x="204.142" y="108.365" fill="#99D2E4" width="7.078" height="27.817"/>
			<rect x="194.277" y="111.519" fill="#99D2E4" width="7.075" height="24.663"/>
			<rect x="184.408" y="114.589" fill="#99D2E4" width="7.075" height="21.593"/>
			<rect x="164.667" y="114.589" fill="#99D2E4" width="7.077" height="21.593"/>
			<rect x="174.541" y="119.56" fill="#99D2E4" width="7.076" height="16.622"/>
		</g>
		<g>
			<polygon fill="#92D7EF" points="158.665,226.988 153.798,316.294 151.656,316.294 156.375,226.988 			"/>
			<polygon fill="#B7EBF7" points="150.366,226.988 145.364,316.294 151.656,316.294 156.375,226.988 			"/>
		</g>
		<g>
			<polygon fill="#B7EBF7" points="222.729,226.988 225.447,316.294 231.165,316.294 228.018,226.988 			"/>
			<polygon fill="#92D7EF" points="230.305,226.988 233.168,316.294 231.165,316.294 228.018,226.988 			"/>
		</g>
		<g>
			<path fill="#99D2E4" d="M200.437,159.953c-2.051,3.906-7.794,14.912-7.737,15.092c-0.026-0.164-3.42-12.816-4.395-16.424
				c-6.943,1.922-12.046,8.29-12.046,15.85c0,9.086,7.364,16.449,16.44,16.449c9.083,0,16.45-7.363,16.45-16.449
				C209.15,168.185,205.621,162.716,200.437,159.953z"/>
			<path fill="#99D2E4" d="M200.863,156.451c-2.305-1.232-4.938-1.928-7.73-1.928c-1.52,0-2.994,0.203-4.394,0.595
				c0.971,3.608,4.364,16.258,4.394,16.422C193.079,171.361,198.823,160.353,200.863,156.451z"/>
		</g>
	</g>
	<path fill="#B7EBF7" d="M471.86,126.647c0,2.771-2.246,5.018-5.016,5.018H329.493c-2.771,0-5.02-2.247-5.02-5.018l0,0
		c0-2.77,2.248-5.018,5.02-5.018h137.352C469.614,121.63,471.86,123.877,471.86,126.647L471.86,126.647z"/>
	<g>
		<g>
			<rect x="404.007" y="109.581" fill="#CAF8FF" width="54.945" height="12.049"/>
			<path fill="#92D7EF" d="M454.362,117.704c-1.156,0-2.094-0.94-2.094-2.098s0.938-2.096,2.094-2.096c1.16,0,2.1,0.938,2.1,2.096
				S455.522,117.704,454.362,117.704z"/>
		</g>
		<g>
			<rect x="404.007" y="97.53" fill="#B7EBF7" width="54.945" height="12.051"/>
			<path fill="#92D7EF" d="M454.362,105.656c-1.156,0-2.094-0.941-2.094-2.099s0.938-2.099,2.094-2.099c1.16,0,2.1,0.941,2.1,2.099
				S455.522,105.656,454.362,105.656z"/>
		</g>
		<g>
			<rect x="404.007" y="85.479" fill="#CAF8FF" width="54.945" height="12.051"/>
			<path fill="#92D7EF" d="M454.362,93.604c-1.156,0-2.094-0.94-2.094-2.098s0.938-2.099,2.094-2.099c1.16,0,2.1,0.941,2.1,2.099
				S455.522,93.604,454.362,93.604z"/>
		</g>
		<g>
			<rect x="404.007" y="73.43" fill="#B7EBF7" width="54.945" height="12.049"/>
			<path fill="#92D7EF" d="M454.362,81.553c-1.156,0-2.094-0.941-2.094-2.099s0.938-2.099,2.094-2.099c1.16,0,2.1,0.941,2.1,2.099
				S455.522,81.553,454.362,81.553z"/>
		</g>
		<g>
			<rect x="384.552" y="66.687" fill="#CAF8FF" width="12.053" height="54.943"/>
			<circle fill="#92D7EF" cx="390.579" cy="117.045" r="2.096"/>
		</g>
	</g>
	<g>
		<g>
			<g>
				<g>
					<path fill="#9AD5EA" d="M112.813,316.98c-0.015,0-0.035-0.006-0.051-0.006c-0.21-0.031-0.36-0.26-0.333-0.506
						c8.766-80.832,8.902-80.934,9.113-81.09c0.178-0.137,0.416-0.072,0.534,0.139c0.065,0.125,0.072,0.275,0.034,0.404
						c-0.313,1.684-5.962,53.422-8.914,80.654C113.17,316.812,113.005,316.98,112.813,316.98z"/>
				</g>
				<g>
					<path fill="#9AD5EA" d="M191.12,316.98c-0.183,0-0.348-0.154-0.381-0.379l-12.58-79.104c-0.041-0.242,0.095-0.48,0.307-0.529
						c0.212-0.047,0.414,0.113,0.45,0.361l12.585,79.107c0.039,0.246-0.099,0.486-0.31,0.531
						C191.168,316.974,191.143,316.98,191.12,316.98z"/>
				</g>
				<path fill="#99D3E8" d="M181.353,237.595c0,0.303-0.311,0.551-0.694,0.551h-60.181c-0.381,0-0.692-0.248-0.692-0.551v-6.564
					c0-0.305,0.312-0.553,0.692-0.553h60.181c0.384,0,0.694,0.248,0.694,0.553V237.595z"/>
				<g>
					<linearGradient id="SVGID_1_" gradientUnits="userSpaceOnUse" x1="297.418" y1="304.542" x2="323.5903" y2="219.4817">
						<stop  offset="0" style="stop-color:#F38BC1"/>
						<stop  offset="1" style="stop-color:#F1658B"/>
					</linearGradient>
					<path fill="url(#SVGID_1_)" d="M314.688,227.47c7.73-5.848,23.861-13.109,24.234-13.199h1.984l-4.246-0.475
						c0,0-26.225,8.02-29.762,11.885c-3.529,3.863-6.074,20.748-8.529,33.197c-2.451,12.447-6.977,45.547-7.166,45.832
						c-0.059,0.088,0.953,0.119,2.381,0.123c2.725,0.012,6.977-0.082,8.32-0.111c0.266-0.012,0.428-0.012,0.428-0.012
						s7.072-18.387,11.131-27.158c1.217-2.639,3.068-6.877,5.061-11.508c-4.537-5.516-8.375-10.818-9.873-14.523
						C305.067,242.656,306.954,233.318,314.688,227.47z"/>
					<path fill="#92D7EF" d="M278.157,98.706c-5.41-0.087-14.773,0.818-14.902,12.261c-0.123,11.443,4.594,15.845,9.623,16.977
						c5.029,1.129,17.037-0.882,18.041-9.118C291.931,110.591,289.729,98.895,278.157,98.706z"/>
					<path fill="#CEF4FF" d="M277.194,101.282c-3.547-0.317-10.605,2.393-10.605,9.935c0,7.547,1.695,11.193,7.297,13.457
						c5.594,2.259,13.326-0.48,14.27-6.875C289.097,111.409,287.677,102.228,277.194,101.282z"/>
					<g>
						<g>
							<path fill="#9AD5EA" d="M321.165,317.066c-0.025,0-0.053-0.004-0.08-0.004c-0.203-0.047-0.332-0.246-0.295-0.451
								l16.727-80.221c0.041-0.209,0.238-0.342,0.449-0.295c0.201,0.039,0.334,0.238,0.291,0.443l-16.723,80.227
								C321.495,316.943,321.339,317.066,321.165,317.066z"/>
						</g>
						<g>
							<path fill="#9AD5EA" d="M407.05,317.066c-0.172,0-0.324-0.111-0.367-0.285l-22.508-87.895
								c-0.055-0.199,0.068-0.406,0.27-0.461c0.205-0.051,0.406,0.072,0.461,0.273l22.51,87.896c0.051,0.199-0.068,0.41-0.273,0.455
								C407.112,317.062,407.079,317.066,407.05,317.066z"/>
						</g>
						<polygon fill="#BF4C8A" points="314.825,209.148 305.165,177.113 290.185,176.701 267.249,176.072 276.302,209.318 
							314.876,209.318 						"/>
						<path fill="#F5A289" enable-background="new    " d="M361.794,131.985c-0.613-3.584-1.697-5.377-3.205-4.811
							c-1.51,0.563-2.547,3.63-6.604,3.724c-4.055,0.095-6.6-1.792-7.074-2.924c-0.492-1.188-1.508,3.208-0.943,7.405
							c0.572,4.197,2.549,7.734,4.861,9.667c1.021,0.858,3.016,1.283,5.07,1.19c1.375-0.066,2.777-0.368,3.934-0.94
							c0.998-0.49,1.814-1.181,2.264-2.091C361.845,139.668,362.407,135.568,361.794,131.985z"/>
						<path fill="#5158BD" d="M393.392,173.445c-0.473-1.805-1.082-3.594-1.844-5.389c-3.865-9.142-9.809-16.687-18.488-18.395
							c-2.104-0.406-4.623-0.7-7.332-0.889c-0.15-0.016-0.301-0.023-0.455-0.028c-1.875-0.131-3.832-0.197-5.791-0.227
							c-0.131,0-0.256-0.012-0.395-0.012c-2.035-0.021-4.066,0-5.996,0.069c-0.119,0.008-0.25,0.013-0.367,0.013
							c-1.059,0.049-2.076,0.104-3.053,0.161c-0.264,0.023-0.529,0.038-0.773,0.062c-2.574,0.197-4.777,0.484-6.309,0.851
							c-5.924,1.419-10.971,3.712-12.836,11.198c-1.863,7.484-4.883,19.459-5.732,21.91c-0.844,2.451-2.168,3.861-3.773-0.289
							c-1.176-3.055-5.455-13.346-7.627-18.551c-0.768-1.857-1.285-3.07-1.285-3.07s-2.689,0.035-5.459,3.607
							c-0.121,0.148-0.242,0.309-0.369,0.479c-1.506,2.102,2.178,16.027,6.104,26.408c3.932,10.367,9.49,14.029,14.582,13.801
							c5.092-0.217,7.258-7.295,8.768-13.896s1.607-19.141,2.928-18.205c1.32,0.947-0.756,7.92,1.223,10.471
							c1.984,2.549,5.279,4.242,5.566,11.229c0.273,6.639,0.02,13.783,0,14.453l24.688,0.039l6.916,0.014
							c0.021-0.006,0.305-0.053,0.777-0.148c2.891-0.619,12.859-3.375,15.436-12.379c0.924-3.238,1.555-6.332,1.877-9.322
							C394.888,182.564,394.587,177.986,393.392,173.445z M374.481,194.175c0,0-0.193-7.447-0.469-13.061
							c-0.285-5.605-1.041-13.346,0.469-13.059c1.508,0.287,3.582,1.795,4.336,10.82
							C379.573,187.906,375.899,192.863,374.481,194.175z"/>
						<path fill="#F5A289" enable-background="new    " d="M305.136,162.21c0.373,0.426,0.688,2.123,0.688,2.123
							s2.686-2.797,5.518-3.475c0,0,0.611-3.884,0-5.109c-0.615-1.227-2.875-1.604-5.518,0.611
							C303.177,158.579,305.136,162.21,305.136,162.21z"/>
						<path fill="#F8A896" enable-background="new    " d="M308.558,159.613c0.973-0.578,0.801-5.326,0-6.552
							s-1.178,0.992-1.086,2.971C307.565,158.012,308.257,159.792,308.558,159.613z"/>
						<path fill="#F8A896" enable-background="new    " d="M307.456,160.652c0.387-0.375,0.34-2.34,0.037-4.327
							c-0.305-1.991-0.824-3.172-1.578-2.791c-0.754,0.376-0.281,3.109,0,4.667C306.2,159.755,306.642,161.453,307.456,160.652z"/>
						<path fill="#F8A896" enable-background="new    " d="M306.011,161.408c1.008-0.162,0.396-2.458-0.273-4.247
							c-0.67-1.79-1.566-2.119-1.943-1.222C303.421,156.834,304.829,161.597,306.011,161.408z"/>
						<path fill="#F8A896" enable-background="new    " d="M305.509,162.636c1.031-0.834-0.744-2.936-1.438-4.344
							c-0.701-1.41-1.455-0.704-1.031,0.995C303.462,160.984,304.868,163.152,305.509,162.636z"/>
						<path fill="#FCAD9A" enable-background="new    " d="M309.224,158.851c0.082,1.208,3.443-0.821,3.164-2.468
							C312.103,154.736,309.132,157.355,309.224,158.851z"/>
						<path fill="#111F49" d="M292.81,311.218l0.063-0.535c-0.66,0.09-1.25,0.209-1.674,0.346c-3.365,1.109-7.191,4.074-6.936,5.543
							c0.234,1.344,15.242,0.209,15.242,0.209s1.508-2.076,0-5.092c0,0-1.508,0.471-4.059,0.66
							C292.901,312.537,292.81,311.218,292.81,311.218z"/>
						<path fill="#F5A289" enable-background="new    " d="M293.585,304.833l-0.713,5.85l-0.063,0.535c0,0,0.092,1.318,2.637,1.131
							c2.551-0.189,4.059-0.66,4.059-0.66l2.4-6.967C300.562,304.751,296.31,304.845,293.585,304.833z"/>
						<path fill="#111F49" d="M374.481,168.056c-1.51-0.283-0.754,7.451-0.475,13.061c0.281,5.611,0.475,13.064,0.475,13.064
							c1.41-1.322,5.092-6.275,4.336-15.305C378.063,169.847,375.989,168.337,374.481,168.056z"/>
						<path fill="#111F49" d="M324.022,182.769c0.848-2.451,3.867-14.432,5.73-21.91c1.867-7.482,6.908-9.779,12.834-11.193
							c5.922-1.412,21.799-1.697,30.479,0c8.678,1.697,14.617,9.244,18.482,18.39c0.762,1.797,1.371,3.586,1.844,5.383
							c0.563-0.852,5.93-9.414,2.588-18.875c-3.516-9.968-6.283-8.335-12.572-9.089c-6.287-0.756-11.189-3.521-14.715-10.564
							c-3.518-7.042-4.682-18.106-19.064-17.038c-2.348,0.177-6.553,3.489-7.545,6.694c-0.988,3.208-0.613,9.431-3.818,11.604
							c-3.205,2.166-6.037,2.967-10.797,3.629c-4.764,0.659-9.105,3.818-11.18,7.873c-2.076,4.058-1.459,7.217-0.328,9.055
							c1.133,1.838,1.697,4.4-0.188,5.785c-0.719,0.527-1.857,1.029-3.15,1.416c2.168,5.205,6.447,15.498,7.627,18.557
							C321.853,186.636,323.177,185.22,324.022,182.769z M344.911,127.974c0.475,1.132,3.02,3.019,7.074,2.924
							c4.057-0.094,5.094-3.162,6.604-3.724c1.508-0.567,2.592,1.227,3.205,4.811c0.613,3.583,0.051,7.683-1.697,11.22
							c-1.744,3.538-8.961,3.772-11.268,1.841c-2.313-1.933-4.289-5.47-4.861-9.667
							C343.403,131.182,344.419,126.786,344.911,127.974z"/>
						<path fill="#011F88" d="M376.995,209.257l0.068-0.148c-0.475,0.1-0.762,0.145-0.783,0.148H376.995z"/>
						<path fill="#149EFF" d="M344.677,209.257h31.594c0,0,0.008,0,0.01,0l-31.6-0.055
							C344.677,209.236,344.677,209.257,344.677,209.257z"/>
						<linearGradient id="SVGID_2_" gradientUnits="userSpaceOnUse" x1="351.6084" y1="212.8477" x2="398" y2="212.8477">
							<stop  offset="0" style="stop-color:#131E44"/>
							<stop  offset="0.99" style="stop-color:#111761"/>
						</linearGradient>
						<path fill="url(#SVGID_2_)" d="M394.37,187.408c-0.322,2.99-0.951,6.078-1.877,9.322c-2.57,9-12.545,11.76-15.43,12.379
							c-0.475,0.1-0.762,0.145-0.783,0.148l-6.916-0.012l-3.424,5.025h13.727c2.922,10.842-3.115,15.088-10.566,17.918
							c-3.416,1.297-10.439,3.205-17.492,5.018c3.969,0.66,17.18,2.461,26.455-0.867c11.037-3.965,19.617-13.393,19.898-25.654
							C398.229,199.181,397.083,193.654,394.37,187.408z"/>
						<path fill="#111F49" d="M358.915,302.634c-0.086-0.035-0.377-0.254-0.791-0.592c-0.467,0.635-0.879,1.328-1.186,2.105
							c-1.416,3.578-2.549,7.576-0.379,8.221c2.172,0.639,10.756-10.678,10.756-10.678s-2.408-3.953-3.492-3.676
							c-0.152,0.039-0.316,0.092-0.49,0.152c0.002,0.041,0.018,0.092,0.018,0.127C363.351,300.089,359.39,302.826,358.915,302.634z"
							/>
						<path fill="#F5A289" enable-background="new    " d="M363.333,298.167c-0.152-1.369-2.77-5.096-4.355-7.246
							c-0.725,0.953-1.666,2.148-2.51,3.133c-0.9,1.047-2.287,2.514-3.393,3.67c1.301,1.135,3.764,3.275,5.049,4.318
							c0.414,0.338,0.705,0.557,0.791,0.592c0.475,0.191,4.436-2.545,4.436-4.34C363.351,298.259,363.335,298.208,363.333,298.167z"
							/>
						<linearGradient id="SVGID_3_" gradientUnits="userSpaceOnUse" x1="306.9038" y1="256.897" x2="380.418" y2="256.897">
							<stop  offset="0" style="stop-color:#F38BC1"/>
							<stop  offset="1" style="stop-color:#F1658B"/>
						</linearGradient>
						<path fill="url(#SVGID_3_)" d="M379.667,214.271H365.94h-25.033h-1.984c-0.373,0.09-16.504,7.352-24.234,13.199
							c-7.734,5.848-9.621,15.186-6.037,24.051c1.498,3.705,5.336,9.008,9.873,14.523c6.32,7.686,13.996,15.785,18.607,20.561
							c7.924,8.205,14.193,12.918,14.193,12.918s0.766-0.777,1.75-1.799c1.105-1.156,2.492-2.623,3.393-3.67
							c0.844-0.984,1.785-2.18,2.51-3.133c0.738-0.963,1.26-1.678,1.26-1.678s-11.164-14.902-17.65-23.859
							c-6.492-8.955-11.723-16.885-12.834-18.578c-1.107-1.699-1.957-3.586,2.662-4.811c2.506-0.664,10.867-2.65,19.193-4.789
							c7.053-1.813,14.076-3.721,17.492-5.018C376.552,229.359,382.589,225.113,379.667,214.271z"/>
						<path fill="#F5A289" enable-background="new    " d="M354.673,149.713c0.381,0.613,2.455,0.756,2.832-0.281
							c0.256-0.703,0.316-2.832,0.328-4.136c-1.156,0.572-2.559,0.874-3.934,0.94C354.042,147.185,354.386,149.247,354.673,149.713z
							"/>
						<path fill="#111F49" d="M344.677,194.746c-0.283-6.977-3.582-8.678-5.564-11.223c-1.98-2.547,0.096-9.523-1.225-10.471
							c-1.32-0.939-1.416,11.604-2.926,18.205c-1.506,6.602-3.678,13.674-8.77,13.896c-5.092,0.229-10.656-3.428-14.58-13.803
							c-3.928-10.375-7.605-24.301-6.104-26.406c0.123-0.174,0.246-0.326,0.367-0.484c-2.986-0.508-7.613,0.373-11.139,3.211
							c-3.127,2.518-4.293,7.658-4.553,9.029l14.98,0.412l9.66,32.035l29.855,0.055C344.704,208.533,344.948,201.39,344.677,194.746
							z"/>
						<linearGradient id="SVGID_4_" gradientUnits="userSpaceOnUse" x1="313.6182" y1="207.3052" x2="340.3389" y2="207.3052">
							<stop  offset="0" style="stop-color:#FAE5AE"/>
							<stop  offset="0.985" style="stop-color:#FADAA9"/>
						</linearGradient>
						<polygon fill="url(#SVGID_4_)" points="313.618,205.154 340.339,205.154 340.339,209.457 314.876,209.318 						"/>
						<path fill="#F7E1D5" d="M286.628,193.71c0-2.447,1.988-4.438,4.436-4.438c2.443,0,4.432,1.99,4.432,4.438
							s-1.988,4.432-4.432,4.432C288.616,198.142,286.628,196.158,286.628,193.71z"/>
						<rect x="387.21" y="213.796" fill="#C1E6F1" width="3.398" height="102.893"/>
						<rect x="254.61" y="213.796" fill="#C1E6F1" width="3.397" height="102.893"/>
						<path fill="#F7E1D5" d="M376.94,190.578c-0.1-0.037-0.207,0.01-0.248,0.107c-0.896,2.193-4.203,5.902-8.746,7.273
							c-2.318,0.705-6.789,1.416-10.516,1.932c0-0.012,0.014-0.02,0.014-0.035c-0.016-0.133-1.012-13.773-1.488-19.869
							c-0.135-1.658-0.209-3.299-0.264-4.801c0.959-1.891,9.105-17.894,9.398-18.484c0.047-0.098,0.047-0.197,0.012-0.293
							c-0.135-0.295-0.705-0.453-1.691-0.709c-0.85-0.221-2.133-0.553-2.133-0.936c0-0.385,1.445-1.035,2.51-1.508
							c1.303-0.582,2.543-1.133,2.814-1.716c0.242-0.519-0.24-1.653-0.875-2.768c-0.15-0.016-0.301-0.023-0.455-0.028
							c0.688,1.168,1.178,2.246,0.992,2.641c-0.217,0.449-1.502,1.022-2.635,1.53c-1.689,0.755-2.73,1.251-2.73,1.849
							c0,0.67,1.227,0.996,2.412,1.303c0.543,0.139,1.357,0.348,1.445,0.463c-0.273,0.542-7.305,14.373-9.088,17.875
							c-0.092-3.367-0.029-5.91-0.021-6.285c1.268-1.471,2.361-11.817,2.369-11.929c0.34-3.267,1.012-6.045,1.465-7.672
							c-0.131,0-0.256-0.012-0.395-0.012c-0.451,1.65-1.109,4.417-1.439,7.646c-0.643,6.112-1.736,11.612-2.338,11.762
							c-0.672-0.664-2.104-15.625-2.219-19.338c-0.119,0.008-0.25,0.013-0.367,0.013c0.063,1.785,0.389,5.835,0.736,9.338
							c0.43,4.402,1.057,9.771,1.594,10.259c0.059,0.059,0.133,0.088,0.211,0.104c-0.018,0.771-0.053,3.297,0.037,6.498
							c-1.387-1.953-7.533-10.617-8.174-12.146c-0.406-0.961,1.113-2.83,2.334-4.332c1.018-1.253,1.592-1.991,1.568-2.461
							c-0.037-0.578-1.031-0.914-2.646-1.401c-1.449-0.438-3.252-0.987-3.139-1.707c0.148-0.992,2.533-2.775,4.426-3.99
							c-0.264,0.023-0.529,0.038-0.773,0.062c-1.67,1.106-3.85,2.752-4.031,3.867c-0.17,1.043,1.65,1.595,3.404,2.129
							c0.994,0.304,2.359,0.719,2.383,1.066c0.016,0.348-0.75,1.291-1.486,2.2c-1.352,1.659-2.875,3.54-2.383,4.711
							c0.736,1.764,8.176,12.168,8.494,12.615c0.008,0.016,0.031,0.027,0.047,0.035c0.049,1.449,0.127,3.004,0.252,4.58
							c0.479,6.094,1.475,19.729,1.488,19.873c0.004,0.02,0.016,0.031,0.023,0.049c-3.174,0.438-5.729,0.723-5.781,0.73
							c-0.08,0.008-0.145,0.064-0.164,0.139l-0.236,0.92c-0.023,0.098,0.037,0.205,0.137,0.23c0.018,0.002,0.031,0.006,0.047,0.006
							c0.084,0,0.162-0.061,0.184-0.145l0.201-0.793c1.328-0.15,12.402-1.438,16.584-2.703c4.656-1.41,8.055-5.232,8.982-7.496
							C377.081,190.728,377.038,190.619,376.94,190.578z"/>
						<g>
							<path fill="#F7E1D5" d="M319.149,266.99c-0.061,0-0.113-0.027-0.154-0.078c-7.113-9.863-11.105-17.135-12.201-22.225
								c-2.086-9.713,4.883-15.484,7.982-17.516c4.609-3.023,23.424-12.805,26.051-13.955c0.098-0.045,0.211,0.002,0.25,0.094
								c0.041,0.096-0.004,0.209-0.096,0.25c-2.625,1.154-21.402,10.91-26.006,13.93c-3.027,1.986-9.85,7.635-7.813,17.115
								c1.08,5.041,5.053,12.264,12.139,22.084c0.061,0.088,0.041,0.205-0.041,0.268C319.226,266.976,319.188,266.99,319.149,266.99
								z"/>
						</g>
						<g>
							<path fill="#011F88" d="M355.761,209.65c-0.006,0-0.012,0-0.018-0.006c-2.932-0.283-4.449-1.164-4.51-1.201
								c-0.092-0.055-0.119-0.168-0.07-0.26c0.053-0.092,0.17-0.117,0.26-0.064c0.016,0.008,1.516,0.877,4.355,1.152
								c0.104,0.01,0.18,0.104,0.17,0.205C355.938,209.574,355.856,209.65,355.761,209.65z"/>
						</g>
						<path fill="#F5A289" enable-background="new    " d="M351.091,201.773c-1.082-0.66-2.594-1.508-4.385-0.33
							c-1.795,1.178-3.678,2.17-3.16,3.959c0,0-1.037,0.662-0.941,1.748c0.092,1.084,1.883,0,1.883,0s-2.082,0.707-1.889,1.6
							c0.193,0.9,1.984,0.754,4.578,0.568c2.592-0.188,2.498,0.473,4.148-1.037L351.091,201.773z"/>
						<rect x="254.61" y="209.203" fill="#C8F4FF" width="135.999" height="5.281"/>
						<g>
							<path fill="#FFFFFF" d="M276.837,106c-0.102,0-0.189-0.084-0.189-0.189v-3.645c0-0.107,0.088-0.189,0.189-0.189
								c0.104,0,0.186,0.082,0.186,0.189v3.645C277.022,105.916,276.94,106,276.837,106z"/>
						</g>
						<g>
							<path fill="#FFFFFF" d="M277.491,123.985c-0.104,0-0.186-0.087-0.186-0.192v-3.08c0-0.103,0.082-0.189,0.186-0.189
								c0.107,0,0.195,0.087,0.195,0.189v3.08C277.687,123.898,277.599,123.985,277.491,123.985z"/>
						</g>
						<g>
							<path fill="#FFFFFF" d="M287.524,113.658h-3.268c-0.105,0-0.191-0.087-0.191-0.191c0-0.105,0.086-0.187,0.191-0.187h3.268
								c0.104,0,0.189,0.082,0.189,0.187C287.714,113.571,287.628,113.658,287.524,113.658z"/>
						</g>
						<g>
							<path fill="#FFFFFF" d="M271.243,113.921h-4.027c-0.102,0-0.186-0.084-0.186-0.187c0-0.107,0.084-0.189,0.186-0.189h4.027
								c0.104,0,0.188,0.082,0.188,0.189C271.431,113.837,271.347,113.921,271.243,113.921z"/>
						</g>
						<g>
							<path fill="#FFFFFF" d="M270.866,111.409c-0.033,0-0.063-0.008-0.092-0.026l-3.209-1.758
								c-0.09-0.051-0.123-0.166-0.074-0.256c0.055-0.092,0.166-0.127,0.26-0.076l3.201,1.761c0.094,0.051,0.125,0.164,0.076,0.256
								C270.997,111.373,270.929,111.409,270.866,111.409z"/>
						</g>
						<g>
							<path fill="#FFFFFF" d="M272.358,107.836c-0.152,0-0.359-0.307-1.973-3.254c-0.053-0.092-0.018-0.205,0.074-0.258
								c0.092-0.049,0.205-0.015,0.256,0.076c0.584,1.066,1.541,2.781,1.75,3.07c0.059,0.033,0.098,0.091,0.098,0.166
								c0,0.084-0.064,0.169-0.146,0.189C272.394,107.831,272.38,107.836,272.358,107.836z"/>
						</g>
						<g>
							<path fill="#FFFFFF" d="M280.296,107.258c-0.033,0-0.072-0.01-0.104-0.028c-0.086-0.059-0.111-0.174-0.059-0.26l1.639-2.579
								c0.055-0.087,0.174-0.115,0.258-0.057c0.09,0.054,0.115,0.169,0.059,0.258l-1.635,2.579
								C280.419,107.228,280.358,107.258,280.296,107.258z"/>
						</g>
						<g>
							<path fill="#FFFFFF" d="M283.628,110.527c-0.066,0-0.127-0.033-0.166-0.095c-0.051-0.092-0.016-0.209,0.07-0.258l2.834-1.572
								c0.088-0.051,0.203-0.018,0.254,0.074c0.053,0.09,0.021,0.207-0.072,0.255l-2.83,1.572
								C283.688,110.52,283.659,110.527,283.628,110.527z"/>
						</g>
						<g>
							<path fill="#FFFFFF" d="M286.708,117.991c-0.029,0-0.057-0.007-0.088-0.023l-3.078-1.552
								c-0.092-0.046-0.129-0.161-0.082-0.253c0.045-0.092,0.16-0.128,0.252-0.082l3.082,1.551c0.092,0.046,0.129,0.158,0.082,0.253
								C286.843,117.952,286.776,117.991,286.708,117.991z"/>
						</g>
						<g>
							<path fill="#FFFFFF" d="M282.812,123.228c-0.072,0-0.143-0.043-0.176-0.117l-1.443-3.392
								c-0.043-0.097,0.002-0.207,0.096-0.248c0.098-0.041,0.211,0.005,0.248,0.1l1.449,3.392c0.043,0.1-0.004,0.21-0.102,0.25
								C282.86,123.223,282.833,123.228,282.812,123.228z"/>
						</g>
						<g>
							<path fill="#FFFFFF" d="M272.878,122.443c-0.031,0-0.063-0.007-0.092-0.022c-0.092-0.051-0.125-0.164-0.078-0.256l1.383-2.61
								c0.049-0.092,0.164-0.125,0.256-0.076c0.092,0.048,0.131,0.161,0.08,0.253l-1.385,2.609
								C273.011,122.405,272.946,122.443,272.878,122.443z"/>
						</g>
						<g>
							<path fill="#FFFFFF" d="M268.979,118.323c-0.076,0-0.15-0.048-0.18-0.125c-0.035-0.097,0.016-0.204,0.115-0.24l3.145-1.112
								c0.096-0.033,0.205,0.018,0.24,0.115c0.033,0.098-0.016,0.207-0.115,0.24l-3.143,1.112
								C269.021,118.32,269.001,118.323,268.979,118.323z"/>
						</g>
						<path fill="#4083A3" d="M272.374,114.425c0,0,5.154,0,5.467-0.25c0.316-0.253,0-7.105,0-7.105h-0.646v6.397h-4.82V114.425z"/>
					</g>
				</g>
				<g>
					<path fill="#9AD5EA" d="M121.233,231.529c-0.172,0-0.328-0.111-0.374-0.283l-11.874-43.711
						c-0.057-0.209,0.068-0.422,0.272-0.475c0.202-0.057,0.42,0.064,0.474,0.271l11.874,43.713c0.057,0.203-0.063,0.418-0.27,0.475
						C121.299,231.525,121.263,231.529,121.233,231.529z"/>
				</g>
				<linearGradient id="SVGID_5_" gradientUnits="userSpaceOnUse" x1="104.5103" y1="182.439" x2="213.271" y2="182.439">
					<stop  offset="0" style="stop-color:#7F6F9E"/>
					<stop  offset="0.995" style="stop-color:#8F7A9E"/>
				</linearGradient>
				<path fill="url(#SVGID_5_)" d="M195.503,192.91c-6.193-4.945-10.065-14.809-14.324-23.625c-4.258-8.807-6.39-15.97-9.578-17.614
					c-1.466-0.753-11.825-0.772-23.302-0.444c-0.17,0-0.337,0.005-0.516,0.012c-1.518,0.041-3.052,0.096-4.586,0.141
					c-0.133,0.006-0.263,0.016-0.389,0.016c-2.313,0.084-4.628,0.184-6.874,0.291c-0.131,0-0.264,0.008-0.401,0.018
					c-0.821,0.039-1.637,0.08-2.441,0.115c-0.153,0.011-0.31,0.016-0.463,0.023c-7.962,0.416-14.612,0.923-16.882,1.38
					c-6.776,1.353-10.974,4.839-11.229,16.002c-0.256,11.162,5.032,20.84,10.454,26.455c4.229,4.375,7.195,5.932,8.3,6.4h0.009
					c0.304,0.133,0.463,0.178,0.463,0.178s0.033,0.16,0.087,0.428c0.294,1.471,1.264,6.438,1.533,9.641c0,0,8.195,2.068,22.52,1.393
					c0.332-0.016,0.664-0.027,0.988-0.045c0.133-0.01,0.255-0.02,0.389-0.02c13.25-0.629,17.626-0.908,17.626-0.908
					s-1.774-11.518-2.356-20.611c-0.581-9.102-1.55-19.656-0.192-20.717c1.353-1.063,2.973,6.387,6.904,14.227
					c3.934,7.842,10.221,15.484,19.229,19.17c9.004,3.674,21.147,4.059,21.147,4.059l1.652-6.482
					C213.271,202.39,201.7,197.847,195.503,192.91z M120.78,175.001c-0.774-3.775-0.966-7.068,0.676-7.068
					c1.646,0,1.842,2.324,2.136,6.389c0.21,2.934,0.41,6.676,0.512,8.531c0.022,0.334,0.03,0.602,0.037,0.803
					c0.016,0.221,0.024,0.346,0.024,0.346S121.554,178.775,120.78,175.001z"/>
				<path fill="#F5A289" enable-background="new    " d="M163.501,203.488c2.256-0.969,4.255-2.838,5.481-1.225
					c1.227,1.609,2.579,3.354,2.192,3.809c-0.388,0.449-2.32-1.033-2.32-1.033s2.516,1.932,2,2.582
					c-0.518,0.645-2.194-1.033-2.194-1.033s2.002,1.805,1.421,2.449c-0.579,0.646-2.323-1.158-2.323-1.158s0.646,1.096-0.386,1.936
					c-1.035,0.832-4.841-0.453-4.841-0.453s-0.066-1.961,0.261-3.496C163.11,204.328,163.501,203.488,163.501,203.488z"/>
				<path fill="#F5A289" enable-background="new    " d="M213.268,202.39c1.351-0.336,2.903-0.096,4.98,1.502
					c2.083,1.596,3.051,2.854,2.176,3.438c-0.867,0.574-3.044-1.887-3.433-1.789c-0.386,0.092,3.29,2.51,2.952,2.998
					c-0.338,0.484-3.238-1.408-3.581-0.873c-0.338,0.535,1.741,1.064,1.354,1.695c-0.389,0.627-5.081,0.049-6.097-0.482
					c0,0,0.049-0.926,0.627-2.932C212.83,203.939,213.268,202.39,213.268,202.39z"/>
				<path fill="#F5A289" enable-background="new    " d="M133.517,134.975c-0.049-0.424-0.101-0.866-0.144-1.313
					c-0.389-0.327-0.821-0.439-1.289-0.184c-1.557,0.854-0.84,3.098,0,4.519c0.708,1.198,1.969,1.651,2.672,1.375
					c0.007-0.521,0.041-1.033,0.079-1.528C134.267,137.484,133.703,136.553,133.517,134.975z"/>
				<path fill="#F5A289" enable-background="new    " d="M137.522,146.426h-0.008c0.099,0.092-0.038,5.378,0,6.538
					c0.043,1.161,1.916,2.255,2.628,0.772c0.477-1.008,1.282-3.521,1.755-5.039c-1.05-0.086-2.071-0.422-2.984-1.091
					C138.385,147.218,137.925,146.824,137.522,146.426z"/>
				<path fill="#F5A289" enable-background="new    " d="M152.651,139.806c-0.366,1.649-0.76,3.036-1.151,3.793
					c-0.104,0.238-0.263,0.474-0.47,0.735c-1.571,2.066-5.577,4.658-9.135,4.371c-1.048-0.106-2.068-0.418-2.985-1.099
					c-0.521-0.394-0.994-0.787-1.385-1.181c-2.356-2.328-2.802-4.789-2.777-7.064c0.025-0.498,0.055-1.023,0.08-1.519
					c0.104,0.077,0.235,0.104,0.341,0.13c0.574,0.156,1.072-0.289,1.099-1.309c0.078-2.144,0.969-4.552,4.266-6.987
					c3.271-2.462,8.951-2.329,12.432-2.723C153.958,129.939,153.463,135.747,152.651,139.806z"/>
				<path fill="#0B1738" d="M157.304,121.86c-0.063-2.387-2.515-6.388-10.453-5.421c-7.938,0.971-11.229,5.099-12.646,8.388
					c-1.225,2.837-1.118,6.032-0.831,8.833c0.043,0.447,0.095,0.89,0.144,1.313c0.186,1.578,0.75,2.51,1.318,2.868
					c0.11,0.071,0.22,0.115,0.327,0.144c0.569,0.141,1.076-0.313,1.104-1.314c0.068-2.157,0.971-4.554,4.257-7.003
					c3.293-2.449,8.965-2.321,12.448-2.709c0.002,0,0.006,0,0.008,0C156.463,126.574,157.369,124.25,157.304,121.86z"/>
				<path fill="#F5A289" enable-background="new    " d="M161.428,309.65c-2.278-0.061-4.265-0.426-5.596-0.742l-1.638,3.348l0,0
					c0,0,3.764-0.51,6.665,0c0.338,0.057,0.655,0.135,0.961,0.211l2.104-2.961C163.268,309.613,162.447,309.675,161.428,309.65z"/>
				<linearGradient id="SVGID_6_" gradientUnits="userSpaceOnUse" x1="204.1177" y1="239.1929" x2="153.7359" y2="310.0753">
					<stop  offset="0" style="stop-color:#131E44"/>
					<stop  offset="0.99" style="stop-color:#111761"/>
				</linearGradient>
				<path fill="url(#SVGID_6_)" d="M193.237,236.826c-0.011,0.105-0.036,0.244-0.071,0.408c-0.572,2.34-4.256,9.629-10.146,18.781
					c-6.293,9.771-27.857,52.893-27.857,52.893l8.763,1.477c0,0,37.138-49.398,39.182-52.096
					C199.475,250.244,195.394,241.271,193.237,236.826z"/>
				<linearGradient id="SVGID_7_" gradientUnits="userSpaceOnUse" x1="152.2935" y1="314.3105" x2="165.4883" y2="314.3105">
					<stop  offset="0" style="stop-color:#131E44"/>
					<stop  offset="0.99" style="stop-color:#111761"/>
				</linearGradient>
				<path fill="url(#SVGID_7_)" d="M161.821,312.466c-0.306-0.076-0.623-0.154-0.961-0.211c-2.901-0.51-6.665,0-6.665,0
					c-0.54,0.021-1.997,3.795-1.896,3.988c0.097,0.193,3.482,0.338,6.773,0.338c3.288,0,6.097,0.193,6.389-1.064
					C165.716,314.404,164.191,313.105,161.821,312.466z"/>
				<path fill="#F5A289" enable-background="new    " d="M232.496,312.046l-0.521-4.754c-0.877,0.021-1.964,0.082-3.19,0.227
					c-2.176,0.244-4.021,0.535-4.959,0.689l2.607,5.27C226.433,313.478,229.109,311.832,232.496,312.046z"/>
				<linearGradient id="SVGID_8_" gradientUnits="userSpaceOnUse" x1="125.2715" y1="260.2681" x2="231.9751" y2="260.2681">
					<stop  offset="0" style="stop-color:#131E44"/>
					<stop  offset="0.99" style="stop-color:#111761"/>
				</linearGradient>
				<path fill="url(#SVGID_8_)" d="M221.541,256.113c-3.486-13.65-9.002-33.008-13.84-38.621
					c-4.841-5.615-27.328-4.355-40.813-4.744c0,0-4.678,0.291-19.003,0.967c-14.324,0.68-22.521-1.387-22.521-1.387
					s-0.808,8.455,2.388,14.26c3.194,5.807,16.261,6.1,25.841,6c9.584-0.094,25.46-0.381,29.234-0.578
					c3.772-0.193,7.159-1.164,9.194,2.418c0.263,0.463,0.68,1.289,1.217,2.398c2.157,4.445,6.238,13.418,9.87,21.463
					c2.477,5.486,4.744,10.531,6.046,13.404c3.677,8.133,14.673,36.516,14.673,36.516l8.149-0.916
					C231.975,307.292,225.024,269.761,221.541,256.113z"/>
				<linearGradient id="SVGID_9_" gradientUnits="userSpaceOnUse" x1="226.4277" y1="314.7344" x2="241.3979" y2="314.7344">
					<stop  offset="0" style="stop-color:#131E44"/>
					<stop  offset="0.99" style="stop-color:#111761"/>
				</linearGradient>
				<path fill="url(#SVGID_9_)" d="M232.805,312.062c-0.104-0.01-0.209-0.01-0.31-0.016c-3.387-0.215-6.063,1.432-6.063,1.432
					c-0.115,0.236,1.677,3.859,1.968,3.957c0.289,0.104,12.483-1.115,12.967-1.693C241.857,315.16,236.333,312.404,232.805,312.062z
					"/>
				<g>
					<path fill="#BBB1C4" d="M143.111,174.531c-0.035,0.016-0.068,0.016-0.1,0.016c-0.067,0-0.146-0.029-0.202-0.092
						c-0.453-0.465-1.694-4.178-3.266-9.291c-0.996-3.266-2.138-7.089-3.292-11.019c-0.292-1.002-0.539-1.846-0.718-2.441
						c0.138-0.01,0.271-0.018,0.401-0.018c0.163,0.553,0.393,1.326,0.687,2.35c0.621,2.137,1.56,5.328,2.533,8.541
						c0,0,0,0.008,0,0.02c1.572,5.178,3.23,10.436,3.834,11.455c0.271-0.951,0.288-5.49,0.179-10.879
						c-0.079-3.826-0.217-8.082-0.358-11.777c0.126,0,0.256-0.01,0.389-0.016c0.146,3.521,0.317,8.47,0.389,12.892
						C143.671,169.693,143.603,174.322,143.111,174.531z"/>
					<path fill="#BBB1C4" d="M163.69,203.531c-0.025,0.092-0.105,0.154-0.188,0.154c-0.017,0-0.032,0-0.048-0.012
						c-0.179-0.033-18.188-4.248-26.635-8.793c-7.164-3.848-11.189-8.898-12.679-11.225c-0.007-0.201-0.015-0.469-0.037-0.803
						c1.029,1.846,5.063,7.475,12.899,11.688c2.679,1.439,6.326,2.852,10.058,4.104c-0.496-3.889-2.369-16.113-2.576-17.453
						c-1.457-0.914-10.941-13.551-11.06-14.791c-0.084-0.977,1.465-1.764,2.827-2.455c0.55-0.277,1.354-0.691,1.487-0.895
						c-0.31-0.213-1.981-0.455-3.328-0.66c-3.371-0.502-5.769-0.93-6.009-1.76c-0.318-1.119,2.717-6.318,4.228-8.789
						c0.153-0.008,0.31-0.013,0.463-0.023c-2.058,3.369-4.56,7.863-4.319,8.705c0.191,0.656,3.498,1.156,5.689,1.479
						c2.967,0.451,3.719,0.604,3.678,1.049c-0.038,0.369-0.61,0.678-1.71,1.244c-1.132,0.57-2.682,1.355-2.617,2.076
						c0.131,1.385,9.354,13.154,10.732,14.395c0.064-0.172,0.156-0.432,0.278-0.785c4.956-13.816,5.907-17.314,5.838-17.807
						c-0.093-0.629-1.889-0.76-3.075-0.852c-1.061-0.08-1.577-0.123-1.766-0.348c-0.052-0.061-0.076-0.139-0.068-0.225
						c0.038-0.328,0.651-0.695,2.388-1.688c1.404-0.807,3.334-1.898,3.563-2.488c0.239-0.604-1.89-3.184-3.919-5.336
						c0.179-0.007,0.346-0.012,0.516-0.012c1.692,1.793,4.116,4.59,3.766,5.486c-0.263,0.668-1.713,1.534-3.731,2.679
						c-0.869,0.496-1.939,1.109-2.162,1.365c0.223,0.094,0.923,0.137,1.448,0.176c1.542,0.117,3.282,0.246,3.421,1.186
						c0.116,0.797-1.797,6.682-5.852,17.994c-0.178,0.496-0.296,0.82-0.334,0.941c0.13,0.863,2.144,13.965,2.617,17.723
						c7.854,2.6,15.949,4.498,16.066,4.521C163.649,203.326,163.709,203.429,163.69,203.531z"/>
					<path fill="#BBB1C4" d="M162.725,209.361c-0.007,0.111-0.092,0.191-0.193,0.191h-0.008c-0.089,0-6.944-0.146-13.702-0.703
						c0.081,0.699,0.348,2.828,0.439,4.805c-0.134,0-0.256,0.01-0.389,0.02c-0.092-2.053-0.371-4.273-0.449-4.855
						c-2.462-0.211-4.893-0.482-6.961-0.813c-7.595-1.24-15.172-4.221-17.631-5.32c-0.054-0.268-0.087-0.428-0.087-0.428
						s-0.159-0.045-0.463-0.178c0.054-0.02,0.107-0.02,0.161,0c1.595,0.775,9.821,4.195,18.081,5.541
						c7.837,1.275,20.877,1.549,21.008,1.549C162.642,209.169,162.725,209.257,162.725,209.361z"/>
				</g>
				<rect x="152.98" y="209.634" fill="#C8F4FF" width="100.536" height="4.217"/>
				<rect x="152.98" y="213.851" fill="#C1E6F1" width="3.229" height="102.51"/>
				<rect x="250.291" y="213.851" fill="#C1E6F1" width="3.226" height="102.51"/>
				<g>
					<linearGradient id="SVGID_10_" gradientUnits="userSpaceOnUse" x1="214.8696" y1="193.0366" x2="262.4971" y2="193.0366">
						<stop  offset="0" style="stop-color:#7F6F9E"/>
						<stop  offset="0.995" style="stop-color:#8F7A9E"/>
					</linearGradient>
					<polygon fill="url(#SVGID_10_)" points="214.918,209.492 224.581,177.455 239.561,177.041 262.497,176.414 253.442,209.66 
						214.87,209.66 					"/>
					<linearGradient id="SVGID_11_" gradientUnits="userSpaceOnUse" x1="189.4058" y1="207.645" x2="216.1255" y2="207.645">
						<stop  offset="0" style="stop-color:#FAE5AE"/>
						<stop  offset="0.985" style="stop-color:#FADAA9"/>
					</linearGradient>
					<polygon fill="url(#SVGID_11_)" points="216.125,205.494 189.406,205.494 189.406,209.796 214.87,209.66 					"/>
					<path fill="#5158BD" d="M243.116,194.054c0-2.449-1.988-4.438-4.433-4.438c-2.447,0-4.434,1.988-4.434,4.438
						c0,2.445,1.986,4.432,4.434,4.432C241.127,198.486,243.116,196.5,243.116,194.054z"/>
				</g>
			</g>
		</g>
		<g>
			<path fill="#E58A76" enable-background="new    " d="M139.61,135.402c0,0,0.081-0.098,0.234-0.276
				c0.156-0.176,0.394-0.447,0.772-0.708c0.379-0.266,0.907-0.524,1.57-0.588c0.654-0.057,1.41,0.077,2.113,0.422
				c0.383,0.184,0.729,0.447,1.001,0.81c0.276,0.363,0.44,0.811,0.512,1.258c0.144,0.905,0.038,1.82,0.047,2.748
				c0.007,0.933,0.029,1.903,0.155,2.876c0.062,0.482,0.141,0.971,0.273,1.441c0.068,0.225,0.148,0.465,0.281,0.639
				c0.062,0.066,0.148,0.15,0.194,0.122c-0.038,0,0.021-0.02,0.041-0.068c0.03-0.038,0.053-0.093,0.076-0.142
				c0.188-0.434,0.278-0.933,0.365-1.416c0.093-0.484,0.161-0.976,0.22-1.464c0.11-0.979,0.185-1.944,0.246-2.881
				c0.031-0.47,0.041-0.915,0.085-1.386c0.043-0.475,0.138-0.935,0.275-1.37c0.286-0.858,0.779-1.658,1.516-2.126
				c0.358-0.232,0.759-0.373,1.147-0.424c0.111-0.005,0.171-0.025,0.322-0.021c0.082,0.005,0.166,0.011,0.243,0.015
				c0.188,0.034,0.424,0.083,0.572,0.164c0.677,0.312,1.002,0.844,1.227,1.237c0.21,0.419,0.309,0.764,0.361,1.002
				c0.052,0.238,0.061,0.368,0.061,0.368c0,0.038-0.026,0.071-0.064,0.074c-0.027,0-0.054-0.016-0.064-0.039
				c0,0-0.061-0.107-0.175-0.312c-0.118-0.2-0.292-0.491-0.55-0.817c-0.131-0.157-0.271-0.335-0.458-0.486
				c-0.168-0.158-0.378-0.301-0.608-0.383c-0.125-0.059-0.208-0.062-0.337-0.089c-0.079-0.002-0.161-0.008-0.245-0.01
				c-0.016-0.003-0.129,0.012-0.188,0.017c-0.291,0.042-0.582,0.139-0.856,0.313c-0.554,0.342-0.996,0.984-1.279,1.738
				c-0.144,0.381-0.246,0.787-0.308,1.212c-0.063,0.43-0.099,0.906-0.157,1.375c-0.113,0.936-0.246,1.901-0.407,2.878
				c-0.076,0.49-0.161,0.983-0.263,1.478c-0.107,0.493-0.21,0.986-0.428,1.472c-0.038,0.062-0.065,0.122-0.112,0.185
				c-0.048,0.057-0.084,0.127-0.237,0.174c-0.212,0.018-0.333-0.127-0.428-0.23c-0.171-0.23-0.252-0.479-0.332-0.721
				c-0.14-0.494-0.225-0.989-0.296-1.482c-0.126-0.986-0.212-1.961-0.25-2.904c-0.039-0.951,0.02-1.865-0.145-2.668
				c-0.081-0.393-0.217-0.751-0.437-1.038c-0.215-0.281-0.513-0.501-0.808-0.639c-0.651-0.312-1.304-0.41-1.863-0.389
				c-0.562,0.034-1.043,0.205-1.414,0.396c-0.361,0.202-0.636,0.401-0.82,0.544c-0.188,0.146-0.294,0.217-0.294,0.217
				c-0.028,0.022-0.068,0.018-0.091-0.013C139.588,135.461,139.592,135.425,139.61,135.402z"/>
			<g>
				<path fill="#DA4F4F" d="M146.023,147.305c-0.363-0.033-0.646-0.115-0.673-0.123c-0.033-0.008-0.059-0.045-0.043-0.081
					c0.008-0.036,0.043-0.057,0.076-0.046c0.021,0.005,1.45,0.414,2.012-0.23c0.023-0.025,0.069-0.031,0.1-0.005
					c0.026,0.022,0.027,0.066,0.003,0.095C147.145,147.318,146.514,147.351,146.023,147.305z"/>
			</g>
			<path fill="#F98C7A" enable-background="new    " d="M138.997,142.01c0.079-0.67,1.677-2.35,3.299-1.079
				c1.621,1.272,1.275,3.719,0.235,4.135C141.484,145.48,138.657,144.912,138.997,142.01z"/>
			<path fill="#F98C7A" enable-background="new    " d="M152.651,140.207c-0.366,1.648-0.76,3.033-1.151,3.795
				c-0.104,0.236-0.263,0.472-0.47,0.731c-0.813-0.26-1.623-1.073-0.653-2.903C151.132,140.442,151.97,140.051,152.651,140.207z"/>
			<path fill="#361410" d="M140.175,136.953c-0.115-0.199,1.165-1.702,2.686-1.712s1.947,1.123,2.007,1.687
				c0.059,0.563-0.297,1.074-0.36,0.749c-0.251-1.266-0.754-1.224-0.754-1.224s0.048,1.129-0.76,1.154
				c-0.805,0.025-0.367-1.721-0.367-1.721s-0.363,0.1-1.01,0.407C140.967,136.601,140.441,137.424,140.175,136.953z"/>
			<path fill="#361410" d="M149.078,136.859c-0.466-0.207,0.348-1.532,1.274-1.961c0.938-0.422,2.007,0.417,2.223,0.951
				c0.211,0.533,0.087,1.191-0.121,1.236c-0.208,0.051,0.005-0.789-0.588-1.35c0,0-0.294,1.291-0.792,1.314
				c-0.496,0.018-0.289-1.728-0.289-1.728s-0.412,0.102-0.785,0.498C149.629,136.217,149.399,137,149.078,136.859z"/>
		</g>
		<g>
			<path fill="#E58A76" enable-background="new    " d="M346.317,133.478c0,0,0.053-0.103,0.166-0.284
				c0.125-0.171,0.441-0.417,0.834-0.57c0.41-0.13,0.949-0.215,1.557-0.046c0.305,0.092,0.613,0.209,0.916,0.511
				c0.195,0.174,0.43,0.562,0.578,0.892c0.297,0.652,0.422,1.373,0.559,2.128c0.127,0.755,0.188,1.555,0.248,2.377
				c0.049,0.818,0.086,1.672,0.256,2.484c0.049,0.199,0.107,0.399,0.199,0.547c0.045,0.077,0.094,0.129,0.156,0.154
				c0.088,0.03,0.078,0.041,0.086,0.02c0.066-0.092,0.109-0.332,0.133-0.528c0.018-0.207,0.033-0.425,0.041-0.64
				c0.033-0.863,0.01-1.74-0.004-2.604c-0.002-0.869-0.006-1.718,0.127-2.572c0.141-0.828,0.4-1.682,0.986-2.315
				c0.568-0.66,1.398-0.931,2.096-0.992c0.059-0.005,0.064-0.015,0.164-0.01l0.119,0.003l0.24,0.007
				c0.184,0.036,0.389,0.054,0.545,0.121c0.332,0.104,0.602,0.284,0.836,0.46c0.455,0.371,0.74,0.79,0.934,1.132
				c0.375,0.705,0.451,1.155,0.451,1.155c0.01,0.041-0.016,0.082-0.059,0.087c-0.031,0.005-0.059-0.01-0.076-0.036
				c0,0-0.057-0.092-0.164-0.261c-0.107-0.173-0.275-0.417-0.516-0.7c-0.232-0.281-0.537-0.611-0.941-0.869
				c-0.199-0.127-0.426-0.248-0.672-0.306c-0.125-0.051-0.232-0.042-0.35-0.072h-0.238h-0.123c0.021-0.003-0.053,0.01-0.076,0.013
				c-0.596,0.051-1.203,0.271-1.648,0.749c-0.455,0.476-0.738,1.183-0.902,1.95c-0.164,0.765-0.207,1.615-0.248,2.467
				c-0.039,0.861-0.064,1.735-0.096,2.612c-0.012,0.22-0.031,0.444-0.059,0.665c-0.043,0.229-0.043,0.449-0.227,0.715
				c-0.025,0.033-0.064,0.069-0.117,0.098c-0.035,0.016-0.072,0.027-0.111,0.035h-0.043c-0.123-0.01-0.158-0.02-0.236-0.056
				c-0.143-0.062-0.246-0.171-0.313-0.278c-0.141-0.223-0.199-0.443-0.262-0.66c-0.199-0.871-0.275-1.71-0.391-2.525
				c-0.113-0.805-0.229-1.582-0.396-2.303c-0.168-0.711-0.359-1.388-0.617-1.927c-0.135-0.26-0.209-0.432-0.449-0.672
				c-0.117-0.12-0.35-0.232-0.555-0.289c-0.426-0.107-0.836-0.087-1.174-0.064c-0.342,0.054-0.568,0.095-0.762,0.171
				c-0.189,0.097-0.303,0.136-0.303,0.136c-0.043,0.015-0.086-0.005-0.104-0.046C346.308,133.521,346.31,133.498,346.317,133.478z"
				/>
			<g>
				<path fill="#DA4F4F" d="M352.261,144.616c-0.379,0.003-0.68-0.215-0.744-0.278c-0.025-0.031-0.025-0.074,0.006-0.105
					c0.027-0.028,0.074-0.028,0.1,0c0.002,0.006,0.301,0.271,0.699,0.236c0.281-0.021,0.545-0.189,0.773-0.497
					c0.021-0.032,0.066-0.04,0.096-0.015c0.035,0.022,0.041,0.068,0.018,0.102c-0.25,0.343-0.543,0.526-0.881,0.553
					C352.306,144.616,352.284,144.616,352.261,144.616z"/>
			</g>
			<path fill="#361410" d="M346.468,135.619c-0.377-0.269,0.172-1.26,1.26-1.508c1.098-0.246,2.121,1.354,1.809,1.625
				c-0.32,0.266-0.723-1.068-1.557-1.088c0,0,0.457,0.968-0.123,1.286c-0.588,0.319-0.807-0.775-0.807-0.775
				S346.771,135.839,346.468,135.619z"/>
			<path fill="#361410" d="M353.13,136.066c-0.381-0.16,0.387-1.482,1.549-1.802c1.17-0.322,1.775,0.36,2.068,0.628
				c0.293,0.263,0.244,0.797,0.004,0.777c-0.24-0.025-0.689-0.971-1.746-1.017c0,0,0.455,1.115,0.004,1.408
				c-0.445,0.295-1.031-0.937-1.031-0.937S353.589,136.258,353.13,136.066z"/>
		</g>
		<path fill="#F98C7A" enable-background="new    " d="M358.886,138.53c-1.869-0.815-4.359,1.109-3.543,3.524
			c0.818,2.419,3.162,1.873,4.143,0.512C360.468,141.201,360.138,139.074,358.886,138.53z"/>
		<path fill="#F98C7A" enable-background="new    " d="M345.692,140.33c-0.318-1.447,1.582-2.564,2.943-1.309
			c1.363,1.255,1.4,3.412,0,4.089C347.235,143.788,346.069,142.055,345.692,140.33z"/>
	</g>
	<g>
		<path fill="#D5E7ED" d="M43.23,281.837c-0.349-0.469-0.926,0.395-4.093,1.248c-0.004,0-0.004,0.006-0.013,0.006
			c-1.12,0.309-2.559,0.605-4.424,0.848c-0.205,0.031-0.409,0.057-0.621,0.076c-1.439,0.18-3.105,0.303-5.056,0.379
			c-0.274,0.008-0.539,0.025-0.806,0.029c-0.822,0.027-1.604,0.043-2.328,0.043c-1.521,0.021-2.838-0.012-3.973-0.064
			c-1-0.043-1.858-0.109-2.594-0.189c-3.747-0.4-4.447-1.133-4.447-1.133c-0.066-0.402,0.117-0.768,0.508-1.084
			c0.809-0.67,2.508-1.178,4.76-1.518c2.129-0.326,4.765-0.516,7.589-0.588h0.081c0.84-0.021,1.697-0.029,2.564-0.021
			c1.941,0.006,3.674,0.021,5.183,0.063c0.548,0.016,1.066,0.031,1.563,0.043c2.615,0.117,4.419,0.344,5.35,0.836
			C42.976,281.072,43.23,281.404,43.23,281.837z"/>
		<path fill="#180F9C" d="M26.892,265.378c0.123-7.693,0.163-12.088-1.15-13.512c-0.063-0.066-0.123-0.125-0.187-0.184
			c0.326,5.377,1.122,11.551,1.306,15.305C26.871,266.482,26.881,265.953,26.892,265.378z"/>
		<path fill="#180F9C" d="M23.692,263.763c-0.191-2.375-0.445-4.834-0.672-7.277c0,0.004,0,0.004,0,0.004
			C23.005,258.628,23.3,261.248,23.692,263.763z"/>
		<path fill="#9AD5E7" d="M15.765,288.845c0.06,2.389,1.087,9.887,2.158,15.336c2.086,10.629,1.783,11.518,10.422,11.441
			c6.504-0.061,7.745-0.025,8.793-2.311c0.99-2.162,4.136-19.129,4.374-25.619c-2.538,0.955-7.46,1.9-12.649,2.074
			C22.291,289.986,17.46,289.593,15.765,288.845z"/>
		<path fill="#699CB5" d="M43.23,281.837c-0.573-0.771-1.77,2.076-14.206,2.557c-12.433,0.479-14.147-1.314-14.147-1.314
			c-0.854,1.029-0.759,4.75,0.57,5.604c0.091,0.053,0.199,0.111,0.318,0.162c1.695,0.748,6.525,1.141,13.098,0.922
			c5.189-0.174,10.111-1.119,12.649-2.074c0.904-0.34,1.513-0.682,1.718-0.988C43.986,285.539,43.799,282.605,43.23,281.837z"/>
		<g>
			<path fill="#99D3E6" d="M27.771,279.375c-0.008,0.174-0.025,0.352-0.038,0.516c-0.192,1.967-0.983,3.492-1.843,4.576
				c-0.823,0.014-1.593,0.004-2.291-0.012c-0.138,0-0.266-0.004-0.396-0.004c-0.457-0.02-0.881-0.031-1.285-0.049
				c-0.509-1.105-1.122-2.449-1.773-3.924c-0.036-0.1-0.085-0.195-0.134-0.307c-2.722-6.195-6.185-14.725-7.133-19.785
				c-1.112-5.928-0.835-10.834,1.436-12.26c0.149-0.094,0.298-0.17,0.46-0.227c0.119-0.053,0.249-0.096,0.387-0.125
				c3.042-0.688,3.426,4.33,3.042,9.459c-0.185,2.482,1.356,5.316,3.246,8.227c0.819,1.287,1.71,2.58,2.545,3.875
				c0.377,0.566,0.724,1.129,1.066,1.691c0.46,0.756,0.882,1.52,1.247,2.266c0.072,0.154,0.153,0.297,0.215,0.449
				c0.161,0.342,0.312,0.695,0.438,1.029C27.609,276.496,27.822,278.035,27.771,279.375z"/>
			<g>
				<path fill="#FFFFFF" d="M23.599,284.455c-0.138,0-0.266-0.004-0.396-0.004c0.523-1.543,1.005-4.83-0.371-11.113
					c-1.409-6.416-3.646-9.473-5.451-11.941c-0.873-1.203-1.635-2.244-2.105-3.438c-1.035-2.627-1.762-6.85-0.962-9.832
					c0.149-0.094,0.298-0.17,0.46-0.227c-0.947,2.865-0.201,7.244,0.85,9.92c0.455,1.152,1.201,2.17,2.07,3.357
					c1.82,2.49,4.09,5.586,5.51,12.078C24.558,279.435,24.131,282.783,23.599,284.455z"/>
			</g>
		</g>
		<g>
			<path fill="#FFFFFF" d="M43.897,263.15c-4.287,2.75-5.998,5.416-7.521,13.164c-0.283,1.432-0.555,2.619-0.815,3.617
				c-0.562,2.129-1.07,3.371-1.481,4.084c-1.379,0.17-2.979,0.297-4.826,0.373c-0.076,0-0.151,0.006-0.229,0.006
				c-0.052,0-0.104,0-0.148,0.008c-0.222,0.012-0.444,0.018-0.657,0.021c-0.373-1.48-0.485-3.004-0.404-4.533
				c0.019-0.281,0.039-0.568,0.069-0.859c0.48-4.688,2.71-9.359,4.817-12.896c1.34-2.248,2.631-4.027,3.388-5.057
				c2.479-3.354,4.945-9.262,7.897-10.447c2.265-0.904,4.011-0.365,4.839,2.111c0.048,0.117,0.084,0.248,0.122,0.377
				c0.185,0.686,0.314,1.494,0.366,2.443C49.601,260.386,48.173,260.386,43.897,263.15z"/>
			<g>
				<path fill="#99D3E8" d="M48.947,253.119c-3.543,2.086-7.074,6.316-9.212,9.186c-2.058,2.762-3.441,5.613-4.902,8.635
					c-1.013,2.086-2.054,4.248-3.43,6.641c-1.441,2.512-2.157,4.785-2.149,6.809c-0.076,0-0.151,0.006-0.229,0.006
					c-0.052,0-0.104,0-0.148,0.008c-0.008-2.09,0.721-4.439,2.195-7.016c1.37-2.373,2.413-4.523,3.42-6.609
					c1.47-3.037,2.86-5.91,4.938-8.691c2.591-3.471,6.014-7.393,9.396-9.344C48.873,252.859,48.909,252.99,48.947,253.119z"/>
			</g>
		</g>
		<g>
			<path fill="#99D3E8" d="M36.187,256.08c-1.188,3.697-2.373,7.049-3.486,10.055c-2.107,3.537-4.337,8.209-4.817,12.896
				c-0.038,0.113-0.077,0.236-0.112,0.344c0.029-0.807-0.03-1.682-0.237-2.633c-0.054-0.289-0.13-0.578-0.212-0.885
				c-0.108-0.35-0.223-0.717-0.363-1.086c-0.126-0.334-0.276-0.688-0.438-1.029c0.069-0.67,0.153-1.719,0.218-3.309
				c0.056-0.381,0.094-0.746,0.126-1.098c0.053-0.586,0.045-1.391-0.006-2.344c0.012-0.51,0.021-1.041,0.038-1.613
				c0.12-7.693,0.158-12.094-1.161-13.508c-0.058-0.07-0.117-0.129-0.181-0.191c-0.054-0.904-0.1-1.797-0.123-2.641
				c-0.181-7.129,1.242-12.748,3.806-15.789c0.996-1.186,2.191-1.662,3.418-1.5c0.135,0.012,0.273,0.049,0.412,0.074
				c1.801,0.445,3.659,2.223,5.121,5.139C40.752,242.097,39.61,245.423,36.187,256.08z"/>
			<g>
				<path fill="#FFFFFF" d="M33.455,247.761c-2.052,7.771-2.346,9.467-3.326,15.078c-0.141,0.803-0.297,1.695-0.477,2.691
					c-0.705,3.957-1.502,8.09-2.118,11.211c-0.054-0.289-0.13-0.578-0.212-0.885c0.59-3.002,1.309-6.777,1.955-10.396
					c0.174-0.998,0.337-1.877,0.473-2.686c0.989-5.627,1.283-7.326,3.33-15.115c1.758-6.662,0.572-11.689-0.217-15.014
					c-0.082-0.313-0.148-0.607-0.207-0.896c0.135,0.012,0.273,0.049,0.412,0.074c0.045,0.24,0.107,0.48,0.166,0.732
					C34.033,235.917,35.232,241.003,33.455,247.761z"/>
			</g>
		</g>
		<g>
			<path fill="#FFFFFF" d="M23.993,269.335c-0.492-0.764-1.001-1.521-1.505-2.281c-0.123-0.184-0.242-0.365-0.366-0.549
				c-0.229-0.352-0.456-0.693-0.674-1.045c-0.133-2.02-0.292-4.525-0.481-7.229c-0.464-6.598-1.804-13.316-4.47-19.404
				c-2.661-6.09-4.856-7.512-3.33-9.52c0.128-0.176,0.273-0.332,0.419-0.461c0.1-0.088,0.197-0.166,0.305-0.23
				c1.513-0.975,3.604,0.279,5.551,4.502c2.286,4.947,2.947,5.906,2.947,13.229c0,3.102,0.299,6.598,0.632,10.143
				c-0.015,2.139,0.28,4.758,0.672,7.268C23.85,265.697,23.964,267.58,23.993,269.335z"/>
			<g>
				<path fill="#99D3E8" d="M22.488,267.054c-0.123-0.184-0.242-0.365-0.366-0.549c0.243-8.463-0.669-19.02-2.298-25.502
					c-1.385-5.527-3.304-8.115-4.99-10.404c-0.436-0.586-0.865-1.158-1.248-1.752c0.1-0.088,0.197-0.166,0.305-0.23
					c0.385,0.588,0.808,1.162,1.248,1.762c1.711,2.314,3.658,4.941,5.061,10.533C21.865,247.562,22.785,258.476,22.488,267.054z"/>
			</g>
		</g>
		<g>
			<path fill="#98D3E6" d="M21.917,284.402c-0.426-0.023-0.822-0.043-1.198-0.066c-0.155-0.018-0.313-0.023-0.471-0.039
				c-0.327-0.02-0.636-0.051-0.925-0.084c-0.857-0.586-2.272-1.393-3.939-2.217c-1.267-0.643-2.693-1.309-4.121-1.904
				c-4.338-1.811-7.056-5.846-6.531-9.502c0.018-0.115,0.037-0.236,0.062-0.35c0-0.006,0.007-0.021,0.007-0.021
				c0.76-3.721,2.374-3.227,6.271,0.021c2.655,2.213,6.233,6.201,8.939,9.932c0.049,0.111,0.098,0.207,0.134,0.307
				C20.795,281.953,21.409,283.296,21.917,284.402z"/>
			<g>
				<path fill="#FFFFFF" d="M20.719,284.335c-0.155-0.018-0.313-0.023-0.471-0.039c-1.366-2.248-3.532-4.975-6.065-7.646
					c-2.799-2.955-5.734-4.58-9.451-6.061c0.018-0.115,0.037-0.236,0.062-0.35c0-0.006,0.007-0.021,0.007-0.021
					c3.799,1.498,6.799,3.148,9.662,6.166C17.1,279.169,19.347,282.011,20.719,284.335z"/>
			</g>
		</g>
		<g>
			<path fill="#ADEFFE" d="M45.508,277.927c-1.003,1.125-2.031,2.08-3.035,2.883c-1.181,0.947-2.331,1.693-3.336,2.275
				c-0.004,0-0.004,0.006-0.013,0.006c-0.608,0.17-1.306,0.332-2.114,0.482c-0.201,0.039-0.405,0.074-0.618,0.104
				c-0.519,0.096-1.082,0.184-1.691,0.262c0.604-0.936,1.51-2.379,2.423-3.965c1.201-2.092,2.428-4.414,2.968-6.088
				c1.225-3.811,6.011-5.584,7.744-4.459c0.018,0.004,0.033,0.014,0.049,0.021c0.098,0.07,0.196,0.146,0.289,0.229
				C49.617,270.927,49.625,273.285,45.508,277.927z"/>
			<g>
				<path fill="#FFFFFF" d="M48.173,269.677c-2.352,1.314-4.515,4.154-6.935,8.045c-1.849,2.961-3.234,4.713-4.229,5.852
					c-0.201,0.039-0.405,0.074-0.618,0.104c1.005-1.107,2.48-2.871,4.527-6.152c2.399-3.867,4.552-6.719,6.916-8.098
					c0.018,0.004,0.033,0.014,0.049,0.021C47.982,269.519,48.081,269.595,48.173,269.677z"/>
			</g>
		</g>
		<g>
			<path fill="#64B6D5" d="M26.897,265.378c-0.017,0.572-0.026,1.104-0.038,1.613c-0.033,1.361-0.072,2.488-0.12,3.441
				c-0.11,0.92-0.263,1.916-0.433,2.859c-0.217-0.457-0.47-0.922-0.726-1.387c-0.117-0.189-0.226-0.379-0.337-0.566
				c-0.063-0.111-0.123-0.207-0.185-0.313c-0.362-1.697-0.928-4.406-1.367-7.27c-0.384-2.449-0.672-5-0.672-7.111v-0.156
				c0.022-3.248,0.427-4.748,0.996-5.221c0.115-0.098,0.237-0.152,0.358-0.166c0.367-0.063,0.776,0.18,1.181,0.576
				c0.063,0.063,0.123,0.121,0.181,0.191C27.055,253.285,27.017,257.685,26.897,265.378z"/>
			<g>
				<path fill="#FFFFFF" d="M25.581,271.906c-0.117-0.189-0.226-0.379-0.337-0.566c0.15-1.943,0.258-4.582,0.122-7.576
					c-0.245-5.41-0.685-8.879-1.35-12.494c0.115-0.098,0.237-0.152,0.358-0.166c0.67,3.668,1.111,7.162,1.372,12.646
					C25.897,267.044,25.751,269.921,25.581,271.906z"/>
			</g>
		</g>
	</g>
	<g>
		<path fill="#689DB3" d="M413.97,312.751c0-2.115,1.711-3.828,3.828-3.828c2.111,0,3.826,1.713,3.826,3.828
			c0,2.107-1.715,3.83-3.826,3.83C415.681,316.582,413.97,314.859,413.97,312.751z"/>
		<path fill="#689DB3" d="M471.798,312.751c0-2.115,1.715-3.828,3.826-3.828c2.115,0,3.828,1.713,3.828,3.828
			c0,2.107-1.713,3.83-3.828,3.83C473.513,316.582,471.798,314.859,471.798,312.751z"/>
		<g>
			<rect x="417.446" y="209.865" fill="#9AD5E7" width="59.279" height="99.059"/>
			<g>
				<rect x="417.446" y="213.423" fill="#FFFFFF" width="59.279" height="0.543"/>
			</g>
			<g>
				<rect x="417.446" y="233.519" fill="#FFFFFF" width="59.279" height="0.543"/>
			</g>
			<g>
				<rect x="417.446" y="256.378" fill="#FFFFFF" width="59.279" height="0.531"/>
			</g>
			<g>
				<polygon fill="#FFFFFF" points="476.726,283.751 476.726,284.294 417.446,283.968 417.446,283.419 				"/>
			</g>
			<g>
				<g>
					<path fill="#FFFFFF" d="M456.978,290.648h-20.461c-0.145,0-0.264-0.123-0.264-0.27v-2.512c0-0.148,0.119-0.27,0.264-0.27
						h20.461c0.15,0,0.27,0.121,0.27,0.27v2.512C457.247,290.525,457.128,290.648,456.978,290.648z M436.794,290.105h19.916v-1.973
						h-19.916V290.105z"/>
				</g>
				<g>
					<path fill="#FFFFFF" d="M456.978,263.22h-20.461c-0.145,0-0.264-0.121-0.264-0.268v-2.512c0-0.148,0.119-0.27,0.264-0.27
						h20.461c0.15,0,0.27,0.121,0.27,0.27v2.512C457.247,263.099,457.128,263.22,456.978,263.22z M436.794,262.685h19.916v-1.973
						h-19.916V262.685z"/>
				</g>
				<g>
					<path fill="#FFFFFF" d="M456.978,240.611h-20.461c-0.145,0-0.264-0.117-0.264-0.27v-2.51c0-0.15,0.119-0.271,0.264-0.271
						h20.461c0.15,0,0.27,0.121,0.27,0.271v2.51C457.247,240.494,457.128,240.611,456.978,240.611z M436.794,240.074h19.916v-1.977
						h-19.916V240.074z"/>
				</g>
				<g>
					<path fill="#FFFFFF" d="M456.978,220.929h-20.461c-0.145,0-0.264-0.121-0.264-0.27v-2.512c0-0.145,0.119-0.268,0.264-0.268
						h20.461c0.15,0,0.27,0.123,0.27,0.268v2.512C457.247,220.808,457.128,220.929,456.978,220.929z M436.794,220.396h19.916v-1.977
						h-19.916V220.396z"/>
				</g>
			</g>
		</g>
	</g>
	<g>
		<path fill="#A7DFE8" d="M73.786,121.131c-3.109,16.15-7.187,21.971-12.058,26.84c0,0-0.062-0.574-0.172-1.57
			c-0.029-0.324-0.063-0.688-0.108-1.105c-0.543-5.338-1.709-17.614-1.851-26.499c-0.204-11.669,1.354-30.931,6.021-29.173
			C71.445,91.816,77.282,102.999,73.786,121.131z"/>
		<path fill="#A7DFE8" d="M91.479,131.833c0,0-2.424,14.985-11.076,25.285c-8.668,10.299-18.098,15.17-18.098,15.17
			s0.313-1.727,0.094-6.363c-0.014-0.201-0.014-0.42-0.029-0.639c-0.018-0.309-0.049-0.639-0.064-0.979
			c-0.654-9.711,3.938-16.526,12.866-24.898C84.088,131.056,91.479,131.833,91.479,131.833z"/>
		<path fill="#A7DFE8" d="M62.245,175.201v18.871c0,0-6.818-13.615-13.164-26.654c-6.351-13.023-2.725-16.913-2.725-16.913
			C59.583,156.932,62.695,174.623,62.245,175.201z"/>
		<path fill="#A7DFE8" d="M68.481,245.359c-0.016,0.438-0.016,0.857-0.016,1.264c0,0-0.094-0.154-0.267-0.451
			c-1.26-2.227-6.906-12.137-10.237-17.861c-3.764-6.475-3.112-13.758,3.876-6.24C68.418,229.132,68.515,238.716,68.481,245.359z"/>
		<path fill="#A7DFE8" d="M84.294,210.988c-3.317,15.559-14.408,26.451-14.408,26.451v-0.438c0-0.246-0.016-0.512-0.016-0.809
			c-0.145-6.66-1.187-23.947,1.087-36.471c2.444-13.43,11.002-27.824,13.337-27.434C86.625,172.679,87.59,195.429,84.294,210.988z"
			/>
		<path fill="#3F7C8C" d="M85.069,261.947c-0.194-3.693-26.648-5.445-27.231,0c-0.017,0.189,0,0.348,0.007,0.52
			c0.151,4.459,8.904,3.955,16.747,3.955c7.744,0,10.402-0.707,10.479-3.955C85.076,262.296,85.076,262.128,85.069,261.947z"/>
		<path fill="#A7DFE8" d="M80.011,238.019c0,0-1.166,18.096-5.742,23.744c-2.287,2.83-3.968,4.09-4.96,3.451
			c-0.11-0.076-0.206-0.154-0.3-0.279c-0.729-0.918-0.902-3.326-0.479-7.467C69.508,248.132,74.953,242.886,80.011,238.019z"/>
		<path fill="#699CB5" d="M68.31,221.103c0,0-0.014,0-0.029-0.016c-0.419-0.186-5.725-2.754-13.432-12.822
			c-8.042-10.504-11.016-16.727-10.096-20.414c0.915-3.705,10.096,0.188,14.829,8.156c4.544,7.686,8.295,16.088,8.681,24.164
			C68.296,220.482,68.31,220.792,68.31,221.103z"/>
		<path fill="#699CB5" d="M68.837,255.195c-0.012,0.139-0.058,0.281-0.122,0.391c-0.264,0.529-0.793,0.791-1.632,0.73
			c-9.541-0.828-13.851-15.963-13.851-15.963C63.049,242.248,69.631,251.865,68.837,255.195z"/>
		<path fill="#699CB5" d="M84.229,163.33c0,0-5.011,10.113-10.486,19.449c-5.462,9.336-11.502,9.539-11.502,9.539
			c-0.199-1.09-0.358-2.16-0.448-3.236c-0.035-0.266-0.049-0.512-0.064-0.764c-0.392-6.115,1.076-11.775,5.121-15.451
			C71.783,168.404,84.229,163.33,84.229,163.33z"/>
		<g>
			<path fill="#699CB5" d="M68.924,267.023c-0.294,0-0.551-0.221-0.58-0.523c-0.005-0.059-0.644-6.115-0.291-13.494
				c0.045-0.953,0.099-1.941,0.157-2.975c0.396-7.189,0.89-16.139-0.518-29.654c-0.852-8.219-2.386-12.867-3.737-16.969
				c-1.208-3.664-2.346-7.125-2.826-12.467c-0.718-7.955-0.505-13.215-0.262-19.309c0.107-2.578,0.214-5.238,0.259-8.305
				c0.146-10.199,0.54-18.796,0.542-18.884c0.02-0.321,0.302-0.564,0.612-0.556c0.324,0.015,0.572,0.286,0.555,0.612
				c-0.001,0.083-0.395,8.667-0.541,18.847c-0.045,3.078-0.156,5.752-0.259,8.332c-0.243,6.055-0.457,11.283,0.253,19.162
				c0.47,5.199,1.593,8.604,2.775,12.201c1.37,4.156,2.925,8.867,3.791,17.215c1.415,13.604,0.922,22.605,0.523,29.838
				c-0.06,1.031-0.113,2.014-0.161,2.963c-0.347,7.295,0.281,13.26,0.29,13.316c0.031,0.322-0.198,0.609-0.522,0.645
				C68.964,267.019,68.944,267.023,68.924,267.023z"/>
		</g>
		<g>
			<g>
				<path fill="#FFFFFF" d="M67.611,111.376c0.015,0.03,0.015,0.059,0,0.093c-0.107,2.194-0.298,4.403-0.527,6.582
					c-0.034,0.247-0.052,0.511-0.081,0.775c-0.419,3.675-0.979,7.286-1.586,10.646c0,0.046-0.013,0.094-0.031,0.125
					c-0.391,2.083-0.778,4.091-1.185,5.942c-0.045,0.221-0.09,0.42-0.139,0.623c-0.964,4.401-1.896,7.998-2.506,10.238
					c-0.029-0.324-0.063-0.688-0.108-1.105c0.919-3.453,2.35-9.164,3.565-15.84c0.045-0.248,0.075-0.48,0.125-0.732
					c0.962-5.414,1.787-11.406,2.084-17.317c0.017-0.281,0.029-0.56,0.047-0.84c0.186-4.216,0.107-8.37-0.375-12.229
					c-0.016-0.111,0.063-0.204,0.155-0.22c0.138-0.013,0.22,0.065,0.22,0.174C67.78,102.412,67.842,106.861,67.611,111.376z"/>
			</g>
			<g>
				<path fill="#FFFFFF" d="M81.053,142.666c-9.444,9.739-16.323,19.466-19.231,23.837c-0.014-0.201-0.014-0.418-0.029-0.639
					c3.047-4.559,9.8-14.003,18.98-23.478c0.08-0.078,0.203-0.078,0.28,0C81.131,142.465,81.131,142.588,81.053,142.666z"/>
			</g>
			<g>
				<path fill="#FFFFFF" d="M61.667,186.794v1.309c-3.036-10.395-12.199-29.721-12.306-29.941c-0.032-0.091,0-0.199,0.093-0.247
					c0.107-0.048,0.216-0.017,0.265,0.092C49.809,158.193,58.336,176.169,61.667,186.794z"/>
			</g>
			<g>
				<path fill="#FFFFFF" d="M77.505,169.505c-7.109,6.383-12.492,13.088-15.713,19.576c-0.035-0.266-0.049-0.512-0.064-0.764
					c3.285-6.348,8.573-12.885,15.53-19.092c0.077-0.076,0.202-0.076,0.263,0.016C77.6,169.318,77.587,169.445,77.505,169.505z"/>
			</g>
			<g>
				<path fill="#FFFFFF" d="M68.31,221.103c0,0-0.014,0-0.029-0.016c-5.309-11.172-17.585-26.67-17.723-26.84
					c-0.063-0.076-0.047-0.201,0.028-0.264c0.079-0.08,0.203-0.047,0.265,0.029c0.126,0.158,11.919,15.014,17.412,26.158
					C68.296,220.482,68.31,220.792,68.31,221.103z"/>
			</g>
			<g>
				<path fill="#FFFFFF" d="M81.756,180.96c-0.035,0.42-4.376,41.545-12.447,56.621c0-0.248-0.017-0.512-0.017-0.811
					c7.827-15.467,12.043-55.438,12.09-55.846c0-0.104,0.109-0.213,0.201-0.184C81.692,180.757,81.77,180.851,81.756,180.96z"/>
			</g>
			<g>
				<path fill="#FFFFFF" d="M68.481,245.359c-0.016,0.438-0.016,0.857-0.016,1.264c0,0-0.094-0.154-0.267-0.451
					c-1.893-12.012-9.783-22.918-9.862-23.029c-0.061-0.078-0.047-0.205,0.031-0.264c0.093-0.063,0.219-0.047,0.277,0.029
					C58.725,223.035,66.349,233.566,68.481,245.359z"/>
			</g>
			<g>
				<path fill="#FFFFFF" d="M68.837,255.195c-0.012,0.139-0.058,0.281-0.122,0.391c-4.854-3.254-12.324-11.516-12.418-11.605
					c-0.062-0.082-0.062-0.203,0.016-0.266c0.078-0.08,0.203-0.08,0.281,0C56.671,243.82,64.031,251.927,68.837,255.195z"/>
			</g>
			<g>
				<path fill="#FFFFFF" d="M77.568,244.957c-2.07,8.574-6.474,17.023-8.259,20.258c-0.11-0.076-0.206-0.154-0.3-0.279
					c1.806-3.281,6.148-11.619,8.188-20.072c0.029-0.107,0.123-0.17,0.232-0.156C77.536,244.74,77.6,244.847,77.568,244.957z"/>
			</g>
			<g>
				<path fill="#FFFFFF" d="M67.434,111.607c-0.078,0-0.149-0.046-0.183-0.122c-0.894-2.161-3.974-7.577-4.004-7.634
					c-0.056-0.092-0.022-0.209,0.072-0.265c0.09-0.056,0.212-0.023,0.265,0.071c0.032,0.057,3.122,5.494,4.026,7.678
					c0.042,0.098-0.007,0.214-0.104,0.253C67.482,111.601,67.458,111.607,67.434,111.607z"/>
			</g>
			<g>
				<path fill="#FFFFFF" d="M66.822,118.937c-0.04,0-0.08-0.015-0.112-0.038c-0.088-0.061-0.106-0.185-0.045-0.273l5.281-7.327
					c0.062-0.088,0.181-0.107,0.269-0.044c0.088,0.061,0.107,0.182,0.046,0.272l-5.282,7.328
					C66.942,118.907,66.883,118.937,66.822,118.937z"/>
			</g>
			<g>
				<path fill="#FFFFFF" d="M65.216,129.693c-0.078,0-0.152-0.052-0.182-0.128c-1.033-2.798-2.772-7.349-3.028-7.655
					c-0.07-0.082-0.063-0.205,0.016-0.274c0.08-0.067,0.194-0.069,0.267,0.01c0.368,0.398,2.658,6.552,3.109,7.785
					c0.04,0.098-0.011,0.209-0.115,0.247C65.262,129.687,65.24,129.693,65.216,129.693z"/>
			</g>
			<g>
				<path fill="#FFFFFF" d="M63.906,136.23c-0.058,0-0.113-0.023-0.15-0.068c-0.069-0.082-0.059-0.205,0.023-0.272l5.56-4.664
					c0.082-0.067,0.205-0.057,0.272,0.025c0.071,0.082,0.058,0.206-0.023,0.275l-5.561,4.662
					C63.994,136.217,63.948,136.23,63.906,136.23z"/>
			</g>
			<g>
				<path fill="#FFFFFF" d="M53.227,166.333c-0.01,0-0.021-0.004-0.034-0.004c-0.101-0.02-0.176-0.119-0.156-0.225l0.982-5.723
					c0.016-0.1,0.104-0.168,0.224-0.156c0.108,0.02,0.177,0.121,0.158,0.225l-0.98,5.723
					C53.404,166.267,53.322,166.333,53.227,166.333z"/>
			</g>
			<g>
				<path fill="#FFFFFF" d="M56.137,173.025c-0.03,0-0.054-0.006-0.08-0.02l-4.261-1.904c-0.097-0.045-0.145-0.16-0.097-0.258
					c0.043-0.098,0.161-0.141,0.255-0.098l4.261,1.904c0.101,0.045,0.143,0.164,0.101,0.26
					C56.282,172.98,56.211,173.025,56.137,173.025z"/>
			</g>
			<g>
				<path fill="#FFFFFF" d="M58.2,178.027c-0.077,0-0.155-0.049-0.185-0.127c-0.178-0.438,0.902-3.736,1.376-5.131
					c0.033-0.104,0.147-0.16,0.245-0.125c0.103,0.035,0.155,0.148,0.123,0.246c-0.73,2.156-1.445,4.566-1.382,4.875
					c0.041,0.102-0.01,0.207-0.108,0.246C58.245,178.021,58.22,178.027,58.2,178.027z"/>
			</g>
			<g>
				<path fill="#FFFFFF" d="M73.529,161.263c-0.003,0-0.011,0-0.016,0l-7.683-0.65c-0.107-0.01-0.185-0.104-0.179-0.211
					c0.008-0.107,0.078-0.18,0.211-0.178l7.685,0.652c0.104,0.008,0.185,0.102,0.176,0.207
					C73.712,161.189,73.627,161.263,73.529,161.263z"/>
			</g>
			<g>
				<path fill="#FFFFFF" d="M69.797,155.85c-0.008,0-0.013,0-0.019,0c-0.106-0.014-0.187-0.107-0.176-0.214l0.721-7.685
					c0.008-0.105,0.112-0.194,0.211-0.172c0.107,0.008,0.188,0.104,0.174,0.211l-0.722,7.682
					C69.98,155.773,69.893,155.85,69.797,155.85z"/>
			</g>
			<g>
				<path fill="#FFFFFF" d="M76.285,148.166c-0.096,0-0.177-0.07-0.191-0.168c-0.016-0.104,0.06-0.203,0.166-0.219l4.634-0.648
					c0.097-0.02,0.206,0.059,0.223,0.165c0.013,0.106-0.063,0.206-0.168,0.218l-4.635,0.65
					C76.304,148.166,76.293,148.166,76.285,148.166z"/>
			</g>
			<g>
				<path fill="#FFFFFF" d="M69.463,177.619c-0.093,0-0.174-0.061-0.193-0.156c-0.018-0.105,0.053-0.205,0.158-0.229l5.126-0.943
					c0.104-0.012,0.209,0.055,0.229,0.158c0.016,0.104-0.053,0.207-0.156,0.227l-5.129,0.941
					C69.488,177.619,69.474,177.619,69.463,177.619z"/>
			</g>
			<g>
				<path fill="#FFFFFF" d="M65.425,182.826c-0.107,0-0.195-0.084-0.195-0.193v-4.805c0-0.109,0.088-0.195,0.195-0.195
					c0.106,0,0.192,0.086,0.192,0.195v4.805C65.618,182.742,65.532,182.826,65.425,182.826z"/>
			</g>
			<g>
				<path fill="#FFFFFF" d="M67.559,185.943h-4.078c-0.105,0-0.193-0.086-0.193-0.195c0-0.107,0.088-0.195,0.193-0.195h4.078
					c0.109,0,0.194,0.088,0.194,0.195C67.753,185.857,67.668,185.943,67.559,185.943z"/>
			</g>
			<g>
				<path fill="#FFFFFF" d="M53.227,197.599c-0.105,0-0.194-0.09-0.194-0.195v-7.033c0-0.104,0.089-0.193,0.194-0.193
					c0.111,0,0.195,0.09,0.195,0.193v7.033C53.422,197.509,53.338,197.599,53.227,197.599z"/>
			</g>
			<g>
				<path fill="#FFFFFF" d="M51.877,202.005c-0.107,0-0.193-0.086-0.196-0.193c0-0.107,0.086-0.195,0.196-0.195l4.57-0.047l0,0
					c0.104,0,0.194,0.084,0.194,0.188c0.003,0.107-0.086,0.197-0.192,0.199l-4.57,0.049H51.877z"/>
			</g>
			<g>
				<path fill="#FFFFFF" d="M60.638,207.957c-0.011,0-0.019,0-0.029-0.002c-0.105-0.012-0.179-0.115-0.163-0.221l1.031-6.838
					c0.013-0.105,0.117-0.182,0.222-0.164s0.179,0.115,0.163,0.223l-1.031,6.836C60.817,207.888,60.732,207.957,60.638,207.957z"/>
			</g>
			<g>
				<path fill="#FFFFFF" d="M63.906,213.005c-0.011,0-0.018,0-0.024,0l-4.331-0.523c-0.104-0.01-0.184-0.107-0.167-0.213
					c0.01-0.107,0.108-0.189,0.214-0.17l4.329,0.52c0.104,0.01,0.185,0.109,0.169,0.215
					C64.084,212.931,64.001,213.005,63.906,213.005z"/>
			</g>
			<g>
				<path fill="#FFFFFF" d="M79.918,194.083c-0.082,0-0.161-0.053-0.185-0.139l-2.537-8.141c-0.032-0.102,0.023-0.209,0.128-0.244
					c0.104-0.029,0.209,0.023,0.243,0.129l2.538,8.141c0.029,0.105-0.024,0.215-0.129,0.244
					C79.956,194.08,79.937,194.083,79.918,194.083z"/>
			</g>
			<g>
				<path fill="#FFFFFF" d="M78.186,204.998c-0.058,0-0.11-0.023-0.15-0.068c-0.069-0.082-0.057-0.205,0.024-0.273l4.697-3.881
					c0.084-0.066,0.204-0.055,0.278,0.025c0.066,0.086,0.054,0.205-0.029,0.277l-4.696,3.879
					C78.273,204.984,78.231,204.998,78.186,204.998z"/>
			</g>
			<g>
				<path fill="#FFFFFF" d="M75.356,219.021c-0.089,0-0.168-0.061-0.19-0.148l-2.405-9.777c-0.026-0.102,0.038-0.211,0.139-0.234
					c0.117-0.029,0.213,0.037,0.236,0.143l2.408,9.775c0.023,0.102-0.039,0.207-0.142,0.232
					C75.385,219.021,75.37,219.021,75.356,219.021z"/>
			</g>
			<g>
				<path fill="#FFFFFF" d="M61.154,227.386h-2.666c-0.107,0-0.194-0.088-0.194-0.193c0-0.109,0.087-0.195,0.194-0.195h2.666
					c0.106,0,0.195,0.086,0.195,0.195C61.349,227.298,61.26,227.386,61.154,227.386z"/>
			</g>
			<g>
				<path fill="#FFFFFF" d="M63.481,231.705c-0.009,0-0.018,0-0.027,0c-0.107-0.018-0.18-0.117-0.162-0.225l0.615-4.313
					c0.013-0.107,0.115-0.186,0.22-0.17c0.106,0.016,0.183,0.117,0.165,0.223l-0.615,4.316
					C63.662,231.632,63.579,231.705,63.481,231.705z"/>
			</g>
			<g>
				<path fill="#FFFFFF" d="M65.847,237.082c-0.017,0-0.032-0.002-0.048-0.004l-2.727-0.699c-0.105-0.027-0.169-0.133-0.141-0.234
					c0.027-0.104,0.123-0.174,0.235-0.141l2.728,0.697c0.104,0.023,0.166,0.129,0.139,0.236
					C66.013,237.025,65.935,237.082,65.847,237.082z"/>
			</g>
			<g>
				<path fill="#FFFFFF" d="M59.879,247.671c-0.099,0-0.185-0.076-0.193-0.178l-0.306-3.627c-0.011-0.107,0.071-0.201,0.179-0.213
					c0.12,0.006,0.2,0.07,0.209,0.178l0.306,3.629c0.008,0.105-0.068,0.201-0.175,0.211
					C59.893,247.671,59.886,247.671,59.879,247.671z"/>
			</g>
			<g>
				<path fill="#FFFFFF" d="M59.573,251.119c-0.088,0-0.166-0.059-0.188-0.146c-0.024-0.107,0.039-0.213,0.146-0.236l3.064-0.721
					c0.104-0.016,0.21,0.043,0.234,0.148s-0.043,0.209-0.146,0.234l-3.066,0.719C59.605,251.119,59.588,251.119,59.573,251.119z"/>
			</g>
			<g>
				<path fill="#FFFFFF" d="M65.264,252.812c-0.091,0-0.171-0.064-0.19-0.156c-0.824-4.289-0.807-4.33-0.763-4.408
					c0.051-0.09,0.17-0.131,0.265-0.078c0.068,0.035,0.105,0.109,0.104,0.182c0.02,0.244,0.473,2.65,0.777,4.23
					c0.019,0.107-0.048,0.205-0.154,0.229C65.292,252.812,65.278,252.812,65.264,252.812z"/>
			</g>
			<g>
				<path fill="#FFFFFF" d="M72.498,258.683c-0.085,0-0.162-0.053-0.187-0.141l-1.301-4.676c-0.032-0.104,0.029-0.211,0.134-0.238
					c0.098-0.039,0.211,0.033,0.24,0.135l1.301,4.676c0.029,0.104-0.032,0.209-0.134,0.24
					C72.532,258.683,72.515,258.683,72.498,258.683z"/>
			</g>
			<g>
				<path fill="#FFFFFF" d="M74.763,253.648c-0.069,0-0.136-0.037-0.174-0.104c-0.048-0.094-0.016-0.213,0.083-0.262l2.2-1.174
					c0.098-0.053,0.214-0.014,0.263,0.078c0.054,0.094,0.016,0.211-0.078,0.264l-2.203,1.178
					C74.823,253.642,74.792,253.648,74.763,253.648z"/>
			</g>
			<g>
				<path fill="#FFFFFF" d="M76.229,249.195c-0.08,0-0.158-0.051-0.185-0.131l-1.129-3.338c-0.037-0.105,0.02-0.215,0.121-0.246
					c0.101-0.037,0.21,0.02,0.245,0.119l1.132,3.342c0.035,0.098-0.019,0.211-0.123,0.248
					C76.269,249.193,76.25,249.195,76.229,249.195z"/>
			</g>
		</g>
		<linearGradient id="SVGID_12_" gradientUnits="userSpaceOnUse" x1="68.2305" y1="319.1367" x2="71.3423" y2="280.2381">
			<stop  offset="0" style="stop-color:#92D7EF"/>
			<stop  offset="1" style="stop-color:#6AC9EF"/>
		</linearGradient>
		<path fill="url(#SVGID_12_)" d="M85.08,262.466h-0.009c-0.077,3.248-2.735,3.955-10.479,3.955c-7.843,0-16.596,0.504-16.747-3.955
			h-0.023c0,0,0.57,16.863,1.752,30.6c1.184,13.74,2.35,18.09,5.657,20.229c3.307,2.141,12.057,3.113,14.781,0.975
			c2.723-2.141,4.494-8.752,5.068-19.451C85.65,284.121,85.08,262.466,85.08,262.466z"/>
	</g>
</g>
</svg>
